<mxfile host="app.diagrams.net" modified="2023-08-10T23:58:18.458Z" agent="Mozilla/5.0 (Windows NT 10.0; Win64; x64) AppleWebKit/537.36 (KHTML, like Gecko) Chrome/115.0.0.0 Safari/537.36" etag="6vsG5KmGGdysz4wmAfPr" version="21.6.8" type="device" pages="2">
  <diagram name="Page-1" id="-nHNQrYT-aP0kIlMWD5m">
    <mxGraphModel dx="1750" dy="1000" grid="1" gridSize="10" guides="1" tooltips="1" connect="1" arrows="1" fold="1" page="1" pageScale="1" pageWidth="850" pageHeight="1100" math="0" shadow="0">
      <root>
        <mxCell id="0" />
        <mxCell id="1" parent="0" />
        <mxCell id="yeWmH9lRDq3JkzNZSyHg-3" value="" style="edgeStyle=orthogonalEdgeStyle;rounded=0;orthogonalLoop=1;jettySize=auto;html=1;" edge="1" parent="1" source="yeWmH9lRDq3JkzNZSyHg-1" target="yeWmH9lRDq3JkzNZSyHg-2">
          <mxGeometry relative="1" as="geometry" />
        </mxCell>
        <mxCell id="yeWmH9lRDq3JkzNZSyHg-1" value="Input image" style="ellipse;whiteSpace=wrap;html=1;" vertex="1" parent="1">
          <mxGeometry x="350" y="40" width="120" height="80" as="geometry" />
        </mxCell>
        <mxCell id="yeWmH9lRDq3JkzNZSyHg-5" value="" style="edgeStyle=orthogonalEdgeStyle;rounded=0;orthogonalLoop=1;jettySize=auto;html=1;" edge="1" parent="1" source="yeWmH9lRDq3JkzNZSyHg-2" target="yeWmH9lRDq3JkzNZSyHg-4">
          <mxGeometry relative="1" as="geometry" />
        </mxCell>
        <mxCell id="yeWmH9lRDq3JkzNZSyHg-2" value="Preprocessing" style="whiteSpace=wrap;html=1;" vertex="1" parent="1">
          <mxGeometry x="350" y="210" width="120" height="60" as="geometry" />
        </mxCell>
        <mxCell id="yeWmH9lRDq3JkzNZSyHg-7" value="" style="edgeStyle=orthogonalEdgeStyle;rounded=0;orthogonalLoop=1;jettySize=auto;html=1;" edge="1" parent="1" source="yeWmH9lRDq3JkzNZSyHg-4" target="yeWmH9lRDq3JkzNZSyHg-6">
          <mxGeometry relative="1" as="geometry" />
        </mxCell>
        <mxCell id="yeWmH9lRDq3JkzNZSyHg-4" value="Gray scale conversion" style="whiteSpace=wrap;html=1;" vertex="1" parent="1">
          <mxGeometry x="350" y="350" width="120" height="60" as="geometry" />
        </mxCell>
        <mxCell id="yeWmH9lRDq3JkzNZSyHg-9" value="" style="edgeStyle=orthogonalEdgeStyle;rounded=0;orthogonalLoop=1;jettySize=auto;html=1;" edge="1" parent="1" source="yeWmH9lRDq3JkzNZSyHg-6" target="yeWmH9lRDq3JkzNZSyHg-8">
          <mxGeometry relative="1" as="geometry" />
        </mxCell>
        <mxCell id="yeWmH9lRDq3JkzNZSyHg-6" value="Thresholding" style="whiteSpace=wrap;html=1;" vertex="1" parent="1">
          <mxGeometry x="350" y="490" width="120" height="60" as="geometry" />
        </mxCell>
        <mxCell id="yeWmH9lRDq3JkzNZSyHg-11" value="" style="edgeStyle=orthogonalEdgeStyle;rounded=0;orthogonalLoop=1;jettySize=auto;html=1;" edge="1" parent="1" source="yeWmH9lRDq3JkzNZSyHg-8" target="yeWmH9lRDq3JkzNZSyHg-10">
          <mxGeometry relative="1" as="geometry" />
        </mxCell>
        <mxCell id="yeWmH9lRDq3JkzNZSyHg-8" value="Contour Analysis" style="whiteSpace=wrap;html=1;" vertex="1" parent="1">
          <mxGeometry x="350" y="630" width="120" height="60" as="geometry" />
        </mxCell>
        <mxCell id="yeWmH9lRDq3JkzNZSyHg-23" value="" style="edgeStyle=orthogonalEdgeStyle;rounded=0;orthogonalLoop=1;jettySize=auto;html=1;" edge="1" parent="1" source="yeWmH9lRDq3JkzNZSyHg-10">
          <mxGeometry relative="1" as="geometry">
            <mxPoint x="410" y="910" as="targetPoint" />
          </mxGeometry>
        </mxCell>
        <mxCell id="yeWmH9lRDq3JkzNZSyHg-10" value="Visualization" style="whiteSpace=wrap;html=1;" vertex="1" parent="1">
          <mxGeometry x="350" y="770" width="120" height="60" as="geometry" />
        </mxCell>
        <mxCell id="yeWmH9lRDq3JkzNZSyHg-21" value="Data extraction to CSV file" style="ellipse;whiteSpace=wrap;html=1;" vertex="1" parent="1">
          <mxGeometry x="350" y="910" width="120" height="80" as="geometry" />
        </mxCell>
      </root>
    </mxGraphModel>
  </diagram>
  <diagram id="GKIe1xwBI8BaZSLkVL6m" name="Page-2">
    <mxGraphModel dx="1050" dy="600" grid="1" gridSize="10" guides="1" tooltips="1" connect="1" arrows="1" fold="1" page="1" pageScale="1" pageWidth="850" pageHeight="1100" math="0" shadow="0">
      <root>
        <mxCell id="0" />
        <mxCell id="1" parent="0" />
        <mxCell id="WagKq8jsJQvOB2b5DHEZ-5" value="" style="edgeStyle=orthogonalEdgeStyle;rounded=0;orthogonalLoop=1;jettySize=auto;html=1;" edge="1" parent="1" source="WagKq8jsJQvOB2b5DHEZ-1" target="WagKq8jsJQvOB2b5DHEZ-4">
          <mxGeometry relative="1" as="geometry" />
        </mxCell>
        <mxCell id="WagKq8jsJQvOB2b5DHEZ-1" value="Raw Data" style="rounded=0;whiteSpace=wrap;html=1;" vertex="1" parent="1">
          <mxGeometry x="40" y="240" width="80" height="40" as="geometry" />
        </mxCell>
        <mxCell id="WagKq8jsJQvOB2b5DHEZ-7" value="" style="edgeStyle=orthogonalEdgeStyle;rounded=0;orthogonalLoop=1;jettySize=auto;html=1;" edge="1" parent="1" source="WagKq8jsJQvOB2b5DHEZ-4" target="WagKq8jsJQvOB2b5DHEZ-6">
          <mxGeometry relative="1" as="geometry" />
        </mxCell>
        <mxCell id="WagKq8jsJQvOB2b5DHEZ-8" value="" style="edgeStyle=orthogonalEdgeStyle;rounded=0;orthogonalLoop=1;jettySize=auto;html=1;" edge="1" parent="1" source="WagKq8jsJQvOB2b5DHEZ-4" target="WagKq8jsJQvOB2b5DHEZ-6">
          <mxGeometry relative="1" as="geometry" />
        </mxCell>
        <mxCell id="WagKq8jsJQvOB2b5DHEZ-9" value="" style="edgeStyle=orthogonalEdgeStyle;rounded=0;orthogonalLoop=1;jettySize=auto;html=1;" edge="1" parent="1" source="WagKq8jsJQvOB2b5DHEZ-4" target="WagKq8jsJQvOB2b5DHEZ-6">
          <mxGeometry relative="1" as="geometry" />
        </mxCell>
        <mxCell id="WagKq8jsJQvOB2b5DHEZ-4" value="Scaled Data" style="whiteSpace=wrap;html=1;rounded=0;" vertex="1" parent="1">
          <mxGeometry x="160" y="240" width="80" height="40" as="geometry" />
        </mxCell>
        <mxCell id="WagKq8jsJQvOB2b5DHEZ-13" value="" style="edgeStyle=orthogonalEdgeStyle;rounded=0;orthogonalLoop=1;jettySize=auto;html=1;" edge="1" parent="1" source="WagKq8jsJQvOB2b5DHEZ-6" target="WagKq8jsJQvOB2b5DHEZ-12">
          <mxGeometry relative="1" as="geometry" />
        </mxCell>
        <mxCell id="WagKq8jsJQvOB2b5DHEZ-6" value="Training Set" style="whiteSpace=wrap;html=1;rounded=0;" vertex="1" parent="1">
          <mxGeometry x="320" y="200" width="80" height="40" as="geometry" />
        </mxCell>
        <mxCell id="WagKq8jsJQvOB2b5DHEZ-10" value="" style="endArrow=classic;html=1;rounded=0;" edge="1" parent="1">
          <mxGeometry width="50" height="50" relative="1" as="geometry">
            <mxPoint x="280" y="260" as="sourcePoint" />
            <mxPoint x="320" y="300" as="targetPoint" />
            <Array as="points">
              <mxPoint x="280" y="300" />
            </Array>
          </mxGeometry>
        </mxCell>
        <mxCell id="WagKq8jsJQvOB2b5DHEZ-11" value="Validation Set" style="rounded=0;whiteSpace=wrap;html=1;" vertex="1" parent="1">
          <mxGeometry x="320" y="280" width="80" height="40" as="geometry" />
        </mxCell>
        <mxCell id="WagKq8jsJQvOB2b5DHEZ-15" value="" style="edgeStyle=orthogonalEdgeStyle;rounded=0;orthogonalLoop=1;jettySize=auto;html=1;" edge="1" parent="1" source="WagKq8jsJQvOB2b5DHEZ-12" target="WagKq8jsJQvOB2b5DHEZ-14">
          <mxGeometry relative="1" as="geometry" />
        </mxCell>
        <mxCell id="WagKq8jsJQvOB2b5DHEZ-12" value="Build Model" style="ellipse;whiteSpace=wrap;html=1;rounded=0;" vertex="1" parent="1">
          <mxGeometry x="490" y="190" width="60" height="60" as="geometry" />
        </mxCell>
        <mxCell id="WagKq8jsJQvOB2b5DHEZ-14" value="Output Data" style="whiteSpace=wrap;html=1;rounded=0;" vertex="1" parent="1">
          <mxGeometry x="480" y="360" width="80" height="40" as="geometry" />
        </mxCell>
        <mxCell id="WagKq8jsJQvOB2b5DHEZ-16" value="Validate" style="rhombus;whiteSpace=wrap;html=1;" vertex="1" parent="1">
          <mxGeometry x="670" y="260" width="80" height="80" as="geometry" />
        </mxCell>
        <mxCell id="WagKq8jsJQvOB2b5DHEZ-17" value="" style="endArrow=classic;html=1;rounded=0;exitX=1;exitY=0.5;exitDx=0;exitDy=0;entryX=0;entryY=0.5;entryDx=0;entryDy=0;" edge="1" parent="1" source="WagKq8jsJQvOB2b5DHEZ-11" target="WagKq8jsJQvOB2b5DHEZ-16">
          <mxGeometry width="50" height="50" relative="1" as="geometry">
            <mxPoint x="400" y="340" as="sourcePoint" />
            <mxPoint x="450" y="290" as="targetPoint" />
          </mxGeometry>
        </mxCell>
        <mxCell id="WagKq8jsJQvOB2b5DHEZ-18" value="" style="endArrow=classic;html=1;rounded=0;exitX=0.973;exitY=0.64;exitDx=0;exitDy=0;exitPerimeter=0;entryX=0;entryY=0;entryDx=0;entryDy=0;" edge="1" parent="1" source="WagKq8jsJQvOB2b5DHEZ-12" target="WagKq8jsJQvOB2b5DHEZ-16">
          <mxGeometry width="50" height="50" relative="1" as="geometry">
            <mxPoint x="400" y="340" as="sourcePoint" />
            <mxPoint x="450" y="290" as="targetPoint" />
          </mxGeometry>
        </mxCell>
        <mxCell id="WagKq8jsJQvOB2b5DHEZ-19" value="" style="endArrow=classic;html=1;rounded=0;exitX=0.5;exitY=0;exitDx=0;exitDy=0;entryX=0.5;entryY=0;entryDx=0;entryDy=0;" edge="1" parent="1" source="WagKq8jsJQvOB2b5DHEZ-16" target="WagKq8jsJQvOB2b5DHEZ-12">
          <mxGeometry width="50" height="50" relative="1" as="geometry">
            <mxPoint x="400" y="340" as="sourcePoint" />
            <mxPoint x="450" y="290" as="targetPoint" />
            <Array as="points">
              <mxPoint x="710" y="120" />
              <mxPoint x="520" y="120" />
            </Array>
          </mxGeometry>
        </mxCell>
        <mxCell id="WagKq8jsJQvOB2b5DHEZ-20" value="Analyze and Tune" style="text;html=1;strokeColor=none;fillColor=none;align=center;verticalAlign=middle;whiteSpace=wrap;rounded=0;" vertex="1" parent="1">
          <mxGeometry x="640" y="130" width="60" height="30" as="geometry" />
        </mxCell>
        <mxCell id="WagKq8jsJQvOB2b5DHEZ-21" value="Apply Model" style="text;html=1;strokeColor=none;fillColor=none;align=center;verticalAlign=middle;whiteSpace=wrap;rounded=0;" vertex="1" parent="1">
          <mxGeometry x="450" y="310" width="60" height="30" as="geometry" />
        </mxCell>
      </root>
    </mxGraphModel>
  </diagram>
</mxfile>
